<svg width="93" height="92" viewBox="0 0 93 92" fill="none" xmlns="http://www.w3.org/2000/svg">
<rect x="0.5625" width="92" height="92" rx="20" fill="#0033AD"/>
<path d="M33.0458 45.5369C32.9181 47.7551 34.6257 49.6542 36.8439 49.7819C36.9237 49.7819 37.0035 49.7819 37.0833 49.7819C39.3175 49.7819 41.1209 47.9786 41.1049 45.7443C41.1049 43.5101 39.3016 41.7068 37.0674 41.7228C34.9289 41.7228 33.1575 43.3984 33.0458 45.5369Z" fill="white"/>
<path d="M18.0144 44.4999C17.2963 44.4521 16.6739 45.0106 16.642 45.7287C16.61 46.4469 17.1526 47.0693 17.8708 47.1012C18.5889 47.1491 19.1953 46.5905 19.2432 45.8724C19.2911 45.1542 18.7325 44.5478 18.0144 44.4999Z" fill="white"/>
<path d="M32.7913 22.1422C33.4296 21.823 33.685 21.0251 33.3658 20.3867C33.0466 19.7484 32.2487 19.493 31.6104 19.8122C30.972 20.1314 30.7167 20.9134 31.0358 21.5517C31.355 22.206 32.137 22.4773 32.7913 22.1422C32.7913 22.1422 32.7753 22.1422 32.7913 22.1422Z" fill="white"/>
<path d="M36.8781 29.2747C37.8675 28.78 38.2665 27.5671 37.7718 26.5777C37.2771 25.5883 36.0642 25.1893 35.0748 25.684C34.0853 26.1787 33.6864 27.3916 34.1811 28.381C34.6758 29.3705 35.8887 29.7694 36.8781 29.2747Z" fill="white"/>
<path d="M23.121 34.1747C23.8871 34.6695 24.9084 34.462 25.4191 33.696C25.9138 32.93 25.7064 31.9086 24.9403 31.3979C24.1743 30.9032 23.153 31.1107 22.6423 31.8767C22.1316 32.6427 22.355 33.68 23.121 34.1747Z" fill="white"/>
<path d="M25.5634 43.7817C24.4463 43.7179 23.5047 44.5637 23.4409 45.6808C23.3771 46.7979 24.2229 47.7395 25.34 47.8033C26.4571 47.8671 27.3986 47.0213 27.4625 45.9042C27.5263 44.8031 26.6805 43.8455 25.5634 43.7817Z" fill="white"/>
<path d="M23.3422 57.2985C22.5283 57.7134 22.1931 58.7029 22.6081 59.5327C23.023 60.3466 24.0124 60.6817 24.8423 60.2668C25.6562 59.8519 25.9913 58.8624 25.5764 58.0326C25.1614 57.2187 24.156 56.8836 23.3422 57.2985Z" fill="white"/>
<path d="M31.1651 39.6163C32.2662 40.3344 33.7344 40.0312 34.4366 38.9301C35.1547 37.8289 34.8515 36.3607 33.7504 35.6586C32.6492 34.9404 31.181 35.2436 30.4789 36.3448C29.7607 37.43 30.0639 38.8982 31.1651 39.6163Z" fill="white"/>
<path d="M55.981 29.1161C56.9066 29.7226 58.1673 29.4672 58.7738 28.5416C59.3802 27.616 59.1248 26.3553 58.1992 25.7489C57.2736 25.1424 56.0129 25.3978 55.4065 26.3234C54.7841 27.2649 55.0394 28.5097 55.981 29.1161Z" fill="white"/>
<path d="M60.094 22.0137C60.7004 22.4126 61.4984 22.2371 61.8973 21.6306C62.2963 21.0242 62.1208 20.2263 61.5143 19.8273C60.9079 19.4283 60.11 19.6039 59.711 20.1944C59.328 20.8008 59.5035 21.6147 60.094 22.0137Z" fill="white"/>
<path d="M56.283 41.6913C54.0647 41.5636 52.1497 43.2712 52.038 45.4894C51.9103 47.7077 53.6179 49.6227 55.8361 49.7344C55.9159 49.7344 55.9957 49.7344 56.0595 49.7344C58.2778 49.7344 60.0811 47.9311 60.0811 45.6969C60.0971 43.5744 58.4214 41.803 56.283 41.6913Z" fill="white"/>
<path d="M38.2041 39.3283C38.8903 40.6848 40.2787 41.5465 41.8107 41.5465C44.029 41.5465 45.8323 39.7432 45.8323 37.509C45.8323 36.8866 45.6887 36.2642 45.4014 35.6897C44.396 33.6949 41.9703 32.8969 39.9915 33.9023C37.9966 34.9237 37.1987 37.3494 38.2041 39.3283Z" fill="white"/>
<path d="M69.7848 34.1741C70.5987 33.7592 70.9179 32.7538 70.503 31.9399C70.088 31.126 69.0826 30.8068 68.2687 31.2217C67.4549 31.6367 67.1357 32.6261 67.5346 33.44C67.9655 34.2539 68.955 34.589 69.7848 34.1741Z" fill="white"/>
<path d="M59.5722 35.4514C58.4072 36.0418 57.9284 37.4622 58.5189 38.6271C59.1094 39.7921 60.5297 40.2709 61.6947 39.6804C62.8597 39.0899 63.3384 37.6696 62.748 36.5046C62.1575 35.3397 60.7372 34.8769 59.5722 35.4514Z" fill="white"/>
<path d="M46.4022 21.4077C47.3118 21.4556 48.0938 20.7534 48.1576 19.8437C48.2215 18.9341 47.5033 18.1521 46.5937 18.0883C45.6841 18.0404 44.9021 18.7266 44.8382 19.6363C44.7904 20.5619 45.4926 21.3439 46.4022 21.4077Z" fill="white"/>
<path d="M46.3895 31.8288C47.6981 31.9086 48.8152 30.9032 48.879 29.5946C48.9588 28.286 47.9534 27.1689 46.6448 27.105C45.3362 27.0252 44.2191 28.0306 44.1553 29.3392C44.0914 30.6478 45.0809 31.765 46.3895 31.8288Z" fill="white"/>
<path d="M33.558 56.0224C34.7229 55.4319 35.2017 54.0116 34.6112 52.8466C34.0208 51.6816 32.6004 51.2029 31.4355 51.7933C30.2705 52.3838 29.7917 53.8041 30.3822 54.9691C30.9727 56.1341 32.393 56.6128 33.558 56.0224Z" fill="white"/>
<path d="M47.9188 35.291C46.7059 37.1581 47.2166 39.6477 49.0838 40.8605C50.9509 42.0734 53.4405 41.5627 54.6533 39.6956C55.8662 37.8284 55.3555 35.3388 53.4884 34.126C52.8341 33.6951 52.068 33.4717 51.2861 33.4717C49.9296 33.4717 48.6689 34.1579 47.9188 35.291Z" fill="white"/>
<path d="M54.9249 52.1438C53.9195 50.149 51.4938 49.351 49.5149 50.3564C47.5201 51.3618 46.7221 53.7875 47.7275 55.7664C48.7329 57.7612 51.1586 58.5592 53.1375 57.5538C55.1164 56.5643 55.9303 54.1705 54.9408 52.1757C54.9408 52.1598 54.9408 52.1598 54.9249 52.1438Z" fill="white"/>
<path d="M61.9652 51.8568C60.8641 51.1387 59.3959 51.4419 58.6937 52.543C57.9756 53.6442 58.2788 55.1124 59.3799 55.8145C60.4811 56.5327 61.9493 56.2295 62.6515 55.1283C63.3696 54.0431 63.0664 52.5749 61.9652 51.8568Z" fill="white"/>
<path d="M69.689 45.8085C69.7529 44.6914 68.9071 43.7498 67.7899 43.686C66.6728 43.6222 65.7313 44.468 65.6675 45.5851C65.6036 46.7022 66.4494 47.6438 67.5665 47.7076C68.6677 47.7714 69.6252 46.9097 69.689 45.8085Z" fill="white"/>
<path d="M75.2566 44.372C74.5385 44.3241 73.9161 44.8827 73.8842 45.6008C73.8522 46.319 74.3948 46.9413 75.113 46.9733C75.8311 47.0211 76.4375 46.4626 76.4854 45.7444C76.5173 45.0263 75.9747 44.4199 75.2566 44.372Z" fill="white"/>
<path d="M70.0075 57.2983C69.2415 56.8036 68.2201 57.0111 67.7095 57.7771C67.2147 58.5431 67.4222 59.5645 68.1882 60.0751C68.9542 60.5699 69.9756 60.3624 70.4863 59.5964C70.9969 58.8304 70.7735 57.793 70.0075 57.2983Z" fill="white"/>
<path d="M33.0183 69.4601C32.4119 69.0612 31.614 69.2367 31.215 69.8272C30.816 70.4336 30.9916 71.2315 31.5821 71.6305C32.1885 72.0295 32.9864 71.8539 33.3854 71.2635C33.8003 70.673 33.6248 69.8591 33.0183 69.4601Z" fill="white"/>
<path d="M60.333 69.3305C59.6947 69.6497 59.4393 70.4476 59.7585 71.086C60.0777 71.7243 60.8756 71.9797 61.514 71.6605C62.1523 71.3413 62.4076 70.5594 62.0885 69.921C61.7693 69.2667 60.9873 68.9954 60.333 69.3305C60.349 69.3305 60.333 69.3305 60.333 69.3305Z" fill="white"/>
<path d="M45.2076 56.1811C46.4205 54.3139 45.9098 51.8244 44.0426 50.5956C42.1755 49.3827 39.6859 49.8934 38.4571 51.7605C37.2283 53.6277 37.7549 56.1172 39.6221 57.3461C40.2764 57.7769 41.0424 58.0004 41.8244 58.0004C43.1968 58.0163 44.4575 57.3301 45.2076 56.1811Z" fill="white"/>
<path d="M37.149 62.3573C36.2234 61.7508 34.9627 62.0062 34.3563 62.9318C33.7498 63.8574 34.0052 65.1181 34.9308 65.7245C35.8564 66.331 37.1171 66.0756 37.7236 65.15C38.3459 64.2244 38.0906 62.9637 37.149 62.3573Z" fill="white"/>
<path d="M46.5446 70.0658C45.6349 70.0179 44.8529 70.7201 44.7891 71.6297C44.7253 72.5394 45.4434 73.3213 46.3531 73.3852C47.2627 73.4331 48.0447 72.7468 48.1085 71.8372C48.1564 70.9116 47.4542 70.1296 46.5446 70.0658Z" fill="white"/>
<path d="M46.5643 59.6451C45.2557 59.5653 44.1386 60.5707 44.0748 61.8793C43.995 63.1879 45.0004 64.305 46.309 64.3688C47.6176 64.4327 48.7347 63.4432 48.7985 62.1346C48.8783 60.842 47.8729 59.7089 46.5643 59.6451Z" fill="white"/>
<path d="M56.2527 62.1978C55.2633 62.7085 54.8643 63.9214 55.375 64.9108C55.8857 65.9003 57.0985 66.2992 58.088 65.7885C59.0774 65.2938 59.4764 64.081 58.9817 63.0915C58.471 62.1021 57.2581 61.6872 56.2527 62.1978Z" fill="white"/>
</svg>
